<svg width="510" height="212" viewBox="0 0 510 212" fill="none" xmlns="http://www.w3.org/2000/svg">
<path d="M184 1C157.6 54.6 51.6667 28 2 8L5 42C11.4 51.6 68.3333 59.3333 96 62V210H140V62C157.6 62.8 176.667 51.6667 184 46V1Z" fill="#FEF4F4"/>
<path d="M174 210V90L194 101C194.8 89.8 209 81 216 78L249.053 100.36C249.369 100.561 249.685 100.775 250 101L249.053 100.36C232.546 89.8101 215.542 110.898 209 123V210H174Z" fill="#FEF4F4"/>
<path d="M266 90L233 69.4639C247.163 57.8697 305.051 55.3022 333.592 55.4541C333.057 55.395 332.546 55.3391 332.059 55.2863C323.452 54.7018 318.464 53.8111 332.059 55.2863C333.002 55.3503 333.989 55.4107 335 55.4639C334.539 55.4599 334.07 55.4566 333.592 55.4541C337.005 55.8304 341.415 56.3351 347 57C380.6 61 381 160.667 377 210H335L329 187C216.2 213.4 282 149.333 329 114C340.2 67.6 291.667 78.6667 266 90Z" fill="#FEF4F4"/>
<path d="M388 90V57L451 101L462 55.4639L498 57L470 114L507 210H470L456 156L440 210H388L440 123L388 90Z" fill="#FEF4F4"/>
<path d="M2 8C51.6667 28 157.6 54.6 184 1V46C176.667 51.6667 157.6 62.8 140 62V210H96V62C68.3333 59.3333 11.4 51.6 5 42L2 8ZM174 90V210H209V123C215.667 110.667 233.2 89 250 101L216 78C209 81 194.8 89.8 194 101L174 90ZM233 69.4639L266 90C291.667 78.6667 340.2 67.6 329 114C282 149.333 216.2 213.4 329 187L335 210H377C381 160.667 380.6 61 347 57C313.4 53 322.333 54.7973 335 55.4639C307 55.2188 247.4 57.6757 233 69.4639ZM388 57V90L440 123L388 210H440L456 156L470 210H507L470 114L498 57L462 55.4639L451 101L388 57Z" stroke="black" stroke-width="3"/>
</svg>
